<?xml version="1.0" encoding="UTF-8"?>
<svg version="1.1" xmlns="http://www.w3.org/2000/svg" width="128" height="128">
<path d="M0 0 C14.66593153 10.19568513 25.60840641 23.74932626 29.74780273 41.46484375 C31.86603529 54.29763126 31.44584138 68.79991362 26.125 80.75 C25.76277344 81.62269531 25.40054688 82.49539062 25.02734375 83.39453125 C17.33536706 100.36902897 3.07751411 111.05081733 -13.734375 117.91796875 C-30.02500275 122.93228047 -49.3872321 120.84818754 -64.375 113.25 C-80.79373216 104.34772371 -91.48385123 89.95575147 -96.98828125 72.1484375 C-100.07127114 59.13867917 -99.45543482 42.94059274 -93.875 30.75 C-93.1634375 29.14511719 -93.1634375 29.14511719 -92.4375 27.5078125 C-84.89523746 12.09693952 -72.63455422 0.5722872 -56.375 -5.1875 C-37.73814183 -11.3787986 -16.99837717 -10.14228624 0 0 Z " fill="#000000" transform="translate(97.875,8.25)"/>
<path d="M0 0 C19.30514397 -1.78059571 19.30514397 -1.78059571 24.85546875 1.88671875 C26.90595685 4.81161543 28.41504258 7.79802985 30 11 C31.92179873 13.95125993 33.96517872 16.81345502 36 19.6875 C36.96114923 21.08530751 37.91971898 22.48489427 38.875 23.88671875 C39.57625 24.91410156 40.2775 25.94148438 41 27 C47.64043716 19.93259734 54.11432233 12.83044088 60.16015625 5.2421875 C63.30931474 1.40435953 63.30931474 1.40435953 65 0 C68.1875 -0.1875 68.1875 -0.1875 71 0 C69.43767979 3.67956291 67.16415918 6.16515793 64.4375 9.0625 C59.38387251 14.52509157 54.67146158 20.20665198 50 26 C48.34160134 28.00712736 46.67210227 30.00426503 45 32 C52.19127754 43.63679457 60.01695952 54.86040422 67.83984375 66.078125 C68.26152832 66.68350098 68.68321289 67.28887695 69.11767578 67.91259766 C70.23859522 69.51908089 71.36330576 71.122917 72.48828125 72.7265625 C74 75 74 75 74 76 C54.69485603 77.78059571 54.69485603 77.78059571 49.14453125 74.11328125 C47.09471912 71.1893488 45.58719868 68.19936453 44 65 C42.07632727 62.09138476 40.03169889 59.27132832 38 56.4375 C33 49.3353661 33 49.3353661 33 47 C27.95519111 50.75126815 24.2961943 55.17254222 20.3828125 60.07421875 C17.3384371 63.81231248 14.11174659 67.36007778 10.84765625 70.90625 C8.86054661 73.06333263 8.86054661 73.06333263 7 76 C3.375 76.1875 3.375 76.1875 0 76 C4.06524473 70.23264061 8.61531769 65.06722767 13.3984375 59.88671875 C16.77377133 56.14141589 19.93882834 52.24698022 23.08984375 48.3125 C24.65039602 46.42324244 26.22857528 44.68812889 28 43 C26.45508369 39.71032746 24.58816442 36.76533414 22.5625 33.75 C21.85351562 32.69425781 21.14453125 31.63851562 20.4140625 30.55078125 C17.31421957 25.9759922 14.16388058 21.43592655 11.02246094 16.88964844 C7.20598683 11.34597171 3.55002373 5.71880956 0 0 Z " fill="#F0F0F0" transform="translate(27,26)"/>
<path d="M0 0 C3.7443978 -0.88561785 6.25877525 -1.19859613 10 0 C13.82490848 3.89614603 16.68775662 8.26957989 19.62207031 12.85791016 C21.34528052 15.53676316 23.15611406 18.14787838 24.97509766 20.76220703 C26.34304602 22.73147333 27.69614174 24.71029906 29.046875 26.69140625 C32.35189656 31.52607115 35.70393056 36.3274319 39.0625 41.125 C39.651521 41.96675781 40.24054199 42.80851562 40.84741211 43.67578125 C44.90656085 49.46602926 49.00054788 55.23040512 53.15649414 60.95166016 C56 64.89254283 56 64.89254283 56 66 C52.44089346 66.80247079 49.55112553 66.90912832 46 66 C42.81678601 63.18294421 40.68252502 59.72042469 38.40966797 56.16601562 C36.18530928 52.74819258 33.82070595 49.43038133 31.47631836 46.09423828 C29.40158507 43.13629618 27.34332206 40.16750413 25.2890625 37.1953125 C22.39882205 33.01580463 19.497658 28.84425985 16.5859375 24.6796875 C15.86994385 23.65464111 15.1539502 22.62959473 14.41625977 21.57348633 C13.05086902 19.61928369 11.68424226 17.66594386 10.31616211 15.71362305 C6.72156547 10.5610429 3.27846552 5.35963292 0 0 Z " fill="#080808" transform="translate(36,31)"/>
</svg>
